<svg
            xmlns="http://www.w3.org/2000/svg"
            width="31"
            height="31"
            viewBox="0 0 31 31"
            fill="none"
        >
            <path
                d="M17.7281 27.125L9.04167 18.0833V15.5H13.5625C14.7035 15.5 15.6886 15.1284 16.5178 14.3853C17.3471 13.6422 17.8474 12.7221 18.0187 11.625H7.75V9.04167H17.6312C17.2653 8.28819 16.7215 7.66906 15.9999 7.18425C15.2783 6.69944 14.4658 6.45747 13.5625 6.45833H7.75V3.875H23.25V6.45833H19.0521C19.3535 6.82431 19.6226 7.22257 19.8594 7.65313C20.0962 8.08368 20.2792 8.54653 20.4083 9.04167H23.25V11.625H20.6344C20.4622 13.4549 19.7087 14.9889 18.374 16.2272C17.0392 17.4655 15.4354 18.0842 13.5625 18.0833H12.626L21.3125 27.125H17.7281Z"
                fill="#1E1E1E"
            />
        </svg>